<?xml version="1.0" encoding="UTF-8" standalone="no"?>
<!DOCTYPE svg PUBLIC "-//W3C//DTD SVG 1.1//EN" "http://www.w3.org/Graphics/SVG/1.1/DTD/svg11.dtd">
<svg width="100%" height="100%" viewBox="0 0 512 512" version="1.1" xmlns="http://www.w3.org/2000/svg" xmlns:xlink="http://www.w3.org/1999/xlink" xml:space="preserve" xmlns:serif="http://www.serif.com/" style="fill-rule:evenodd;clip-rule:evenodd;stroke-linecap:round;stroke-miterlimit:10;">
    <g transform="matrix(0.703722,0,0,0.857604,15.1072,49.5818)">
        <path d="M140.927,275.655C140.927,262.775 128.203,252.334 112.507,252.334L17.668,252.334C1.972,252.334 -10.753,262.775 -10.753,275.655L-10.753,512C-10.753,524.88 1.972,535.321 17.668,535.321L112.507,535.321C128.203,535.321 140.927,524.88 140.927,512L140.927,275.655ZM112.507,275.655L17.668,275.655L17.668,512L112.507,512L112.507,275.655Z"/>
    </g>
    <g transform="matrix(0.703722,0,0,1.28641,145.305,-169.965)">
        <rect x="17.668" y="275.655" width="94.839" height="236.345" style="fill:rgb(255,161,131);"/>
        <path d="M140.927,275.655C140.927,267.068 128.203,260.107 112.507,260.107L17.668,260.107C1.972,260.107 -10.753,267.068 -10.753,275.655L-10.753,512C-10.753,520.586 1.972,527.547 17.668,527.547L112.507,527.547C128.203,527.547 140.927,520.586 140.927,512L140.927,275.655ZM112.507,275.655L17.668,275.655L17.668,512L112.507,512L112.507,275.655Z"/>
    </g>
    <g transform="matrix(0.703722,0,0,1.06802,274.804,-58.1531)">
        <path d="M140.927,275.655C140.927,265.312 128.203,256.928 112.507,256.928L17.668,256.928C1.972,256.928 -10.753,265.312 -10.753,275.655L-10.753,512C-10.753,522.342 1.972,530.726 17.668,530.726L112.507,530.726C128.203,530.726 140.927,522.342 140.927,512L140.927,275.655ZM112.507,275.655L17.668,275.655L17.668,512L112.507,512L112.507,275.655Z"/>
    </g>
    <g transform="matrix(0.703722,0,0,1.54123,405.286,-300.436)">
        <rect x="17.668" y="275.655" width="94.839" height="236.345" style="fill:rgb(255,161,131);"/>
        <path d="M140.927,275.655C140.927,268.488 128.203,262.678 112.507,262.678L17.668,262.678C1.972,262.678 -10.753,268.488 -10.753,275.655L-10.753,512C-10.753,519.167 1.972,524.977 17.668,524.977L112.507,524.977C128.203,524.977 140.927,519.167 140.927,512L140.927,275.655ZM112.507,275.655L17.668,275.655L17.668,512L112.507,512L112.507,275.655Z"/>
    </g>
    <g transform="matrix(1,0,0,1,-0.822731,-3.45386)">
        <g transform="matrix(1,-0,-0,1,0.822731,3.45386)">
            <path d="M409.6,10.098L451.762,14.824L447.036,56.986" style="fill:none;stroke:black;stroke-width:20px;"/>
            <path d="M60.91,153.816L168.998,63.362L304.144,132.688C304.144,132.688 415.758,43.571 451.762,14.824" style="fill:none;stroke:black;stroke-width:20px;stroke-linejoin:round;stroke-miterlimit:2;"/>
        </g>
    </g>
</svg>
