<?xml version="1.0" encoding="UTF-8" standalone="no"?>
<!DOCTYPE svg PUBLIC "-//W3C//DTD SVG 1.1//EN" "http://www.w3.org/Graphics/SVG/1.1/DTD/svg11.dtd">
<svg width="100%" height="100%" viewBox="0 0 512 512" version="1.1" xmlns="http://www.w3.org/2000/svg" xmlns:xlink="http://www.w3.org/1999/xlink" xml:space="preserve" xmlns:serif="http://www.serif.com/" style="fill-rule:evenodd;clip-rule:evenodd;stroke-linecap:round;stroke-linejoin:round;stroke-miterlimit:1.5;">
    <g transform="matrix(1,0,0,0.591178,3.71048,142.038)">
        <path d="M213.197,358.399L213.197,192.772" style="fill:none;stroke:black;stroke-width:24.35px;"/>
    </g>
    <rect x="146.339" y="10.46" width="132.844" height="36.526" style="fill:rgb(255,161,131);"/>
    <g transform="matrix(0.395781,0,0,0.263192,191.148,201.305)">
        <rect x="17.668" y="275.655" width="94.839" height="236.345" style="fill:rgb(255,161,131);"/>
        <path d="M144.511,275.655C144.511,249.075 130.182,227.528 112.507,227.528L17.668,227.528C-0.008,227.528 -14.336,249.075 -14.336,275.655L-14.336,512C-14.336,538.58 -0.008,560.127 17.668,560.127L112.507,560.127C130.182,560.127 144.511,538.58 144.511,512L144.511,275.655ZM112.507,275.655L17.668,275.655L17.668,512L112.507,512L112.507,275.655Z"/>
    </g>
    <g transform="matrix(1,0,0,1.18236,90.1727,-117.967)">
        <path d="M213.197,358.399L213.197,192.772" style="fill:none;stroke:black;stroke-width:18.27px;"/>
    </g>
    <g transform="matrix(0.395781,0,0,0.526385,277.61,0.568585)">
        <rect x="17.668" y="275.655" width="94.839" height="236.345" style="fill:rgb(255,161,131);"/>
        <path d="M144.511,275.655C144.511,262.365 130.182,251.591 112.507,251.591L17.668,251.591C-0.008,251.591 -14.336,262.365 -14.336,275.655L-14.336,512C-14.336,525.29 -0.008,536.064 17.668,536.064L112.507,536.064C130.182,536.064 144.511,525.29 144.511,512L144.511,275.655ZM112.507,275.655L17.668,275.655L17.668,512L112.507,512L112.507,275.655Z"/>
    </g>
    <g transform="matrix(1,0,0,1,177.177,30.2033)">
        <path d="M213.197,358.399L213.197,192.772" style="fill:none;stroke:black;stroke-width:20px;"/>
    </g>
    <g transform="matrix(0.395781,0,0,0.445199,364.614,130.457)">
        <rect x="17.668" y="275.655" width="94.839" height="236.345" style="fill:rgb(255,161,131);"/>
        <path d="M144.511,275.655C144.511,259.941 130.182,247.203 112.507,247.203L17.668,247.203C-0.008,247.203 -14.336,259.941 -14.336,275.655L-14.336,512C-14.336,527.713 -0.008,540.452 17.668,540.452L112.507,540.452C130.182,540.452 144.511,527.713 144.511,512L144.511,275.655ZM112.507,275.655L17.668,275.655L17.668,512L112.507,512L112.507,275.655Z"/>
    </g>
    <g transform="matrix(1,0,0,0.817643,238.803,-47.6605)">
        <path d="M213.197,358.399L213.197,192.772" style="fill:none;stroke:black;stroke-width:21.9px;"/>
    </g>
    <g transform="matrix(0.395781,0,0,0.364014,426.24,34.3112)">
        <rect x="17.668" y="275.655" width="94.839" height="236.345" style="fill:rgb(255,161,131);"/>
        <path d="M144.511,275.655C144.511,256.437 130.182,240.857 112.507,240.857L17.668,240.857C-0.008,240.857 -14.336,256.437 -14.336,275.655L-14.336,512C-14.336,531.218 -0.008,546.797 17.668,546.797L112.507,546.797C130.182,546.797 144.511,531.218 144.511,512L144.511,275.655ZM112.507,275.655L17.668,275.655L17.668,512L112.507,512L112.507,275.655Z"/>
    </g>
    <g transform="matrix(0.998884,0,0,0.990403,14.4761,-6.57474)">
        <path d="M341.986,163.874L341.986,52.687C341.986,33.101 326.403,17.2 307.21,17.2L89.804,17.2C70.611,17.2 55.028,33.101 55.028,52.687L55.028,476.512C55.028,496.099 70.611,512 89.804,512L307.21,512C326.403,512 341.986,496.099 341.986,476.512L341.986,395.395" style="fill:none;stroke:black;stroke-width:20.11px;"/>
    </g>
    <g transform="matrix(1,0,0,1,0.284984,3.95892)">
        <path d="M134.646,10.46L146.054,43.027L134.646,10.46Z" style="fill:none;stroke:black;stroke-width:20px;"/>
    </g>
    <g transform="matrix(-1,0,0,1,425.238,3.95892)">
        <path d="M134.646,10.46L146.054,43.027L134.646,10.46Z" style="fill:none;stroke:black;stroke-width:20px;"/>
    </g>
    <g transform="matrix(1,0,0,1,0.284984,3.95892)">
        <path d="M146.054,43.027L278.899,43.027L146.054,43.027Z" style="fill:none;stroke:black;stroke-width:20px;"/>
    </g>
    <g transform="matrix(0.776473,0,0,0.776473,46.767,95.2566)">
        <circle cx="213.78" cy="445.273" r="29.296" style="fill:rgb(255,161,131);stroke:black;stroke-width:25.76px;"/>
    </g>
</svg>
