<?xml version="1.0" encoding="UTF-8" standalone="no"?>
<!DOCTYPE svg PUBLIC "-//W3C//DTD SVG 1.1//EN" "http://www.w3.org/Graphics/SVG/1.1/DTD/svg11.dtd">
<svg width="100%" height="100%" viewBox="0 0 430 134" version="1.1" xmlns="http://www.w3.org/2000/svg" xmlns:xlink="http://www.w3.org/1999/xlink" xml:space="preserve" xmlns:serif="http://www.serif.com/" style="fill-rule:evenodd;clip-rule:evenodd;stroke-linejoin:round;stroke-miterlimit:2;">
    <g transform="matrix(4.16667,0,0,4.16667,0,0)">
        <g>
            <path d="M7.984,32L10.38,32L10.38,19.2L7.984,19.2L7.984,32ZM16.767,31.808L18.913,31.808L18.913,23.732L27.946,32L27.946,19.392L25.806,19.392L25.806,27.33L16.767,19.2L16.767,31.808ZM32.845,28.708C34.013,29.618 35.415,30.144 36.918,30.144C38.382,30.144 39.409,29.64 39.409,28.527C39.409,27.557 38.754,27.177 37.607,26.752L35.75,26.107C34.038,25.499 32.736,24.611 32.736,22.57C32.736,20.387 34.707,19.2 37.064,19.2C38.508,19.2 39.824,19.563 40.852,20.206L40.852,22.371C39.783,21.581 38.613,21.037 37.11,21.037C35.816,21.037 34.849,21.52 34.849,22.527C34.849,23.437 35.456,23.801 36.525,24.167L38.594,24.893C40.599,25.598 41.519,26.691 41.519,28.489C41.519,30.751 39.529,32 36.918,32C35.202,32 33.743,31.52 32.845,30.914L32.845,28.708ZM47.109,32L49.504,32L49.504,19.2L47.109,19.2L47.109,32ZM60.74,30.063C63.44,30.063 64.883,28.331 64.883,25.597C64.883,22.843 63.439,21.117 60.74,21.117L58.07,21.117L58.07,30.063L60.74,30.063ZM55.89,19.2L60.82,19.2C64.615,19.2 67.069,21.7 67.069,25.597C67.069,29.497 64.615,32 60.82,32L55.89,32L55.89,19.2ZM79.047,19.2L79.047,21.117L73.25,21.117L73.25,24.197L78.449,24.197L78.449,26.092L73.249,26.092L73.249,30.063L79.047,30.063L79.047,32L71.062,32L71.062,19.2L79.047,19.2ZM87.549,24.996L89.926,24.996C91.333,24.996 92.126,24.224 92.126,23.037C92.126,21.85 91.333,21.077 89.926,21.077L87.549,21.077L87.549,24.997L87.549,24.996ZM87.549,26.806L87.549,32L85.434,32L85.434,19.2L89.966,19.2C92.55,19.2 94.222,20.531 94.222,23.037C94.222,25.18 93.294,26.411 91.317,26.727L95.814,32L93.408,32L89.054,26.807L87.55,26.807L87.549,26.806ZM7.147,6.59C8.084,6.247 8.814,5.218 8.814,3.803C8.814,1.445 7.147,0.223 4.48,0.223L0,0.223L0,13.386L4.896,13.386C7.563,13.386 9.23,12.078 9.23,9.613C9.23,8.219 8.355,6.997 7.147,6.59ZM2.104,5.754L2.104,2.153L4.46,2.153C5.94,2.153 6.731,2.689 6.731,3.932C6.731,5.175 5.939,5.754 4.46,5.754L2.104,5.754ZM2.104,7.598L4.854,7.598C6.314,7.598 7.105,8.326 7.105,9.527C7.105,10.706 6.313,11.457 4.855,11.457L2.105,11.457L2.105,7.597L2.104,7.598ZM19.005,13.6C22.068,13.6 24.131,11.756 24.131,8.155L24.131,0.223L21.964,0.223L21.964,7.897C21.964,10.427 20.922,11.607 19.005,11.607C17.088,11.607 16.047,10.427 16.047,7.897L16.047,0.223L13.88,0.223L13.88,8.133C13.88,11.756 15.963,13.6 19.005,13.6ZM29.233,12.442C30.129,13.086 31.588,13.6 33.296,13.6C35.901,13.6 37.88,12.27 37.88,9.87C37.88,7.962 36.964,6.804 34.963,6.054L32.901,5.282C31.838,4.897 31.234,4.511 31.234,3.546C31.234,2.474 32.192,1.96 33.484,1.96C34.984,1.96 36.151,2.538 37.214,3.375L37.214,1.08C36.193,0.395 34.88,0.009 33.442,0.009C31.088,0.009 29.129,1.274 29.129,3.589C29.129,5.754 30.421,6.697 32.129,7.34L33.984,8.026C35.13,8.476 35.776,8.884 35.776,9.913C35.776,11.092 34.755,11.628 33.296,11.628C31.796,11.628 30.4,11.07 29.233,10.106L29.233,12.442ZM45.623,0.223L43.457,0.223L43.457,13.385L45.623,13.385L45.623,0.223ZM51.805,13.369L53.893,13.369L53.893,4.806L62.681,13.573L62.681,0.203L60.599,0.203L60.599,8.62L51.805,0L51.805,13.369ZM76.222,0.226L76.222,2.197L70.596,2.197L70.596,5.365L75.641,5.365L75.641,7.314L70.596,7.314L70.596,11.397L76.222,11.397L76.222,13.389L68.472,13.389L68.472,0.226L76.222,0.226ZM81.267,12.433C82.163,13.077 83.621,13.591 85.33,13.591C87.934,13.591 89.914,12.262 89.914,9.861C89.914,7.953 88.997,6.796 86.997,6.045L84.934,5.274C83.871,4.888 83.267,4.502 83.267,3.537C83.267,2.465 84.225,1.951 85.517,1.951C87.017,1.951 88.184,2.53 89.247,3.366L89.247,1.072C88.226,0.386 86.913,0 85.475,0C83.121,0 81.162,1.265 81.162,3.58C81.162,5.745 82.454,6.688 84.162,7.331L86.017,8.017C87.163,8.467 87.809,8.875 87.809,9.904C87.809,11.083 86.789,11.619 85.329,11.619C83.829,11.619 82.433,11.062 81.267,10.097L81.267,12.433ZM94.353,12.433C95.249,13.077 96.708,13.591 98.416,13.591C101.021,13.591 103,12.262 103,9.861C103,7.953 102.083,6.796 100.083,6.045L98.02,5.274C96.958,4.888 96.353,4.502 96.353,3.537C96.353,2.465 97.312,1.951 98.603,1.951C100.103,1.951 101.271,2.53 102.333,3.366L102.333,1.072C101.313,0.386 100,0 98.562,0C96.207,0 94.249,1.265 94.249,3.58C94.249,5.745 95.541,6.688 97.249,7.331L99.104,8.017C100.25,8.467 100.896,8.875 100.896,9.904C100.896,11.083 99.875,11.619 98.416,11.619C96.916,11.619 95.52,11.062 94.353,10.097L94.353,12.433Z" style="fill:white;"/>
        </g>
    </g>
</svg>
