<?xml version="1.0" encoding="UTF-8" standalone="no"?>
<!DOCTYPE svg PUBLIC "-//W3C//DTD SVG 1.1//EN" "http://www.w3.org/Graphics/SVG/1.1/DTD/svg11.dtd">
<svg width="100%" height="100%" viewBox="0 0 1271 385" version="1.1" xmlns="http://www.w3.org/2000/svg" xmlns:xlink="http://www.w3.org/1999/xlink" xml:space="preserve" xmlns:serif="http://www.serif.com/" style="fill-rule:evenodd;clip-rule:evenodd;stroke-linejoin:round;stroke-miterlimit:2;">
    <g transform="matrix(4.16667,0,0,4.16667,0,0)">
        <g transform="matrix(1.13469,0,0,1.13469,-20.5152,-34.9734)">
            <path d="M140.895,31.914L141.077,39.31L139.354,39.4C139.218,34.874 138.264,34.256 131.384,34.256L129.912,34.256L129.912,60.166C129.912,63.745 130.822,64.693 134.347,64.792L134.435,66.029C131.098,65.985 128.567,65.985 126.961,65.985C125.272,65.985 122.649,65.985 119.21,66.029L119.298,64.792C122.832,64.693 123.744,63.745 123.744,60.165L123.744,34.255L122.023,34.255C114.956,34.255 114.001,34.874 113.91,39.4L112.197,39.31L112.367,31.914C118.817,31.957 123.644,32.016 126.882,32.016C129.912,32.016 134.633,31.957 140.895,31.914M143.753,64.883C146.952,64.883 147.383,64.264 147.431,59.782L147.431,38.17C147.383,33.679 146.951,33.057 143.753,33.057L143.657,31.912C148.005,31.678 149.001,31.53 152.927,30.822L152.927,45.515C155.454,42.792 157.511,41.695 160.331,41.695C165.003,41.695 167.586,44.559 167.586,50L167.586,59.782C167.634,64.264 168.064,64.883 171.256,64.883L171.338,66.029C168.591,65.939 166.49,65.839 165.105,65.839C163.759,65.839 161.802,65.939 159.178,66.029L159.278,64.883C161.802,64.506 162.044,64.036 162.091,59.782L162.091,52.62C162.091,46.608 161.046,44.611 157.893,44.611C156.215,44.611 154.405,45.699 153.642,47.374C153.355,47.948 153.163,48.561 152.971,49.182C152.927,49.43 152.927,49.612 152.927,49.709L152.927,59.782C152.927,64.036 153.214,64.506 155.733,64.883L155.836,66.029C153.163,65.939 151.196,65.839 149.866,65.839C148.481,65.839 146.377,65.939 143.657,66.029L143.753,64.883M179.025,50.863C183.412,50.765 184.747,50.66 189.101,50.189C188.527,45.562 186.789,43.364 183.841,43.364C180.977,43.364 179.496,45.65 179.025,50.864M194.162,61.352C191.198,65.03 188.292,66.562 184.553,66.562C177.925,66.562 173.438,61.692 173.438,54.572C173.438,46.9 178.068,41.693 184.748,41.693C188.338,41.693 190.921,43.024 192.686,45.846C193.877,47.855 194.207,49.233 194.252,52.673L179.161,52.673C179.361,59.831 181.978,63.931 186.341,63.931C188.911,63.931 191.105,62.736 193.449,60.021L194.162,61.352M18.235,110.135C22.109,110.036 23.113,108.98 23.113,105.008L23.113,80.168C23.113,76.201 22.109,75.146 18.235,75.036L18.081,73.756L26.201,73.858L39.041,73.696L42.421,73.756L42.631,81.436L40.513,81.596C40.148,76.788 39.249,76.259 31.715,76.259L30.545,76.259L30.017,76.305L30.017,90.605C31.013,90.605 31.821,90.661 32.299,90.661C33.11,90.72 33.923,90.752 34.736,90.759C38.878,90.759 39.833,89.869 39.877,85.936L41.684,85.936C41.524,89.084 41.524,90.714 41.524,92.298C41.524,93.572 41.524,95.36 41.577,97.738L39.877,97.738C39.669,93.945 38.817,93.2 34.843,93.153L31.976,93.093L29.964,93.2L29.964,104.27C29.964,108.772 30.227,108.98 34.68,108.98C40.571,108.98 42.323,107.656 42.844,102.613L44.964,102.726L43.745,111.513L39.669,111.57L26.79,111.466L18.08,111.513L18.235,110.135M71.709,107.761C68.692,110.883 66.292,112.101 62.803,112.101C55.82,112.101 51.345,106.652 51.345,98.441C51.345,89.871 56.071,84.504 63.701,84.504C65.711,84.504 67.743,84.874 70.878,85.724L70.968,91.978L68.586,92.138C67.701,87.469 66.771,86.358 63.701,86.358C59.735,86.358 57.671,89.809 57.671,96.631C57.671,104.591 60.149,109.086 64.655,109.086C66.984,109.086 68.852,108.077 70.921,105.858L71.709,107.761M83.847,98.75C84.373,106.226 86.864,110.295 90.939,110.295C94.749,110.295 97.032,106.335 97.032,99.76C97.032,91.936 93.897,86.514 89.563,86.514C85.702,86.514 83.736,89.763 83.736,96.376C83.736,97.171 83.736,97.962 83.847,98.751M77.365,99.338L77.365,98.535C77.365,89.603 82.177,84.505 90.359,84.505C97.949,84.505 103.346,90.135 103.346,98.325C103.346,106.544 98.103,112.102 90.2,112.102C82.658,112.102 77.632,107.022 77.365,99.338M109.6,110.247C113.053,110.247 113.578,109.557 113.578,104.59L113.578,92.4C113.578,87.576 113.053,86.887 109.6,86.833L109.494,85.62C114.111,85.354 115.178,85.194 119.192,84.345L119.463,89.032C122.48,85.723 124.808,84.504 127.948,84.504C133.091,84.504 135.996,87.842 135.996,93.731L135.996,104.591C135.948,105.007 135.948,105.434 135.948,105.858C135.948,109.243 136.845,110.247 140.078,110.247L140.182,111.513C137.112,111.412 134.782,111.303 133.245,111.303C131.765,111.303 129.541,111.412 126.719,111.513L126.812,110.247C129.541,109.82 129.854,109.297 129.854,104.59L129.912,101.346L129.912,96.632C129.912,89.975 128.692,87.842 125.341,87.842C123.271,87.842 121.525,88.902 120.467,90.82C120.044,91.614 119.677,92.875 119.677,93.411L119.677,104.591C119.729,109.298 119.995,109.821 122.798,110.247L122.961,111.513C119.995,111.412 117.772,111.303 116.29,111.303C114.748,111.303 112.487,111.412 109.494,111.513L109.6,110.247M151.208,98.75C151.742,106.226 154.222,110.295 158.215,110.295C162.027,110.295 164.305,106.335 164.305,99.76C164.305,91.936 161.183,86.514 156.872,86.514C153.066,86.514 151.107,89.763 151.107,96.376C151.107,97.171 151.107,97.962 151.207,98.751M144.643,99.338L144.643,98.535C144.643,89.603 149.467,84.505 157.64,84.505C165.316,84.505 170.708,90.135 170.708,98.325C170.708,106.544 165.469,112.102 157.481,112.102C149.991,112.102 144.911,107.022 144.643,99.338M176.631,110.247C180.186,110.247 180.716,109.557 180.716,104.59L180.716,92.4C180.716,87.576 180.186,86.887 176.631,86.833L176.524,85.62C181.237,85.354 182.307,85.194 186.299,84.345L186.536,89.032C189.515,85.778 191.849,84.504 194.971,84.504C198.571,84.504 200.683,85.988 202.185,89.444C205.42,85.824 207.797,84.504 211.031,84.504C216.027,84.504 218.824,87.892 218.824,93.731L218.824,104.591C218.824,105.007 218.771,105.434 218.771,105.858C218.771,109.243 219.73,110.247 222.901,110.247L223.016,111.513C219.941,111.412 217.613,111.303 216.122,111.303C214.687,111.303 212.508,111.412 209.601,111.513L209.706,110.247C212.508,109.82 212.775,109.297 212.827,104.59L212.827,96.632C212.827,90.078 211.675,87.842 208.382,87.842C206.425,87.842 204.41,89.032 203.563,90.82C203.297,91.45 203.037,92.09 202.878,92.831C202.824,93.093 202.768,93.305 202.768,93.411L202.768,104.591C202.768,109.298 203.086,109.821 205.889,110.247L206.004,111.513C203.197,111.412 201.134,111.303 199.733,111.303C198.361,111.303 196.291,111.412 193.537,111.513L193.648,110.247C196.453,109.82 196.718,109.297 196.763,104.59L196.763,96.632C196.763,90.078 195.605,87.842 192.316,87.842C190.315,87.842 188.51,88.949 187.503,90.82C187.077,91.663 186.736,92.875 186.736,93.411L186.736,104.591C186.789,109.298 187.026,109.821 189.834,110.247L189.94,111.513C187.026,111.412 184.888,111.303 183.412,111.303C181.869,111.303 179.598,111.412 176.524,111.513L176.631,110.247M231.001,75.52C231.001,75.516 231.001,75.512 231.001,75.508C231.001,73.589 232.58,72.01 234.499,72.01C234.5,72.01 234.502,72.01 234.503,72.01C236.468,72.01 238.05,73.639 238.05,75.52C238.05,77.522 236.519,79.115 234.503,79.115C232.493,79.115 231.001,77.578 231.001,75.52M237.784,84.345L237.784,101.346L237.834,104.59C237.834,109.556 238.319,110.245 241.912,110.245L242.023,111.513C238.735,111.412 236.354,111.304 234.716,111.304C233.131,111.304 230.808,111.412 227.604,111.513L227.704,110.245C231.2,110.245 231.699,109.556 231.699,104.59L231.748,101.346L231.748,95.79L231.699,92.402C231.699,87.576 231.199,86.887 227.704,86.834L227.604,85.619C232.388,85.304 233.493,85.141 237.784,84.345M248.398,110.566L248.19,105.162L250.885,105.063C252.104,109.137 252.902,109.927 255.71,109.927C258.14,109.927 259.734,108.661 259.734,106.759C259.734,104.952 258.624,103.64 255.281,101.399C253.591,100.235 252.429,99.434 251.795,98.964C250.413,97.907 249.408,96.632 248.877,95.21C248.553,94.414 248.398,93.466 248.398,92.353C248.398,87.634 251.69,84.504 256.659,84.504C258.51,84.504 259.571,84.662 263.771,85.668L263.886,90.924L261.195,91.034C260.595,87.576 259.52,86.358 257.035,86.358C254.652,86.358 252.954,87.736 252.954,89.601C252.954,91.45 253.807,92.561 256.558,94.307C259.042,95.952 260.945,97.427 262.238,98.592C263.723,100.018 264.574,101.816 264.574,103.817C264.574,108.494 260.644,112.101 255.604,112.101C253.649,112.101 251.795,111.666 248.398,110.566M270.18,86.043C274.356,85.723 275.936,83.93 277.134,78.421L279.514,78.421L279.514,85.566L286.19,85.566L285.444,88.475L279.514,88.475L279.514,101.399C279.514,107.819 280.365,109.346 283.964,109.346C284.808,109.346 285.599,109.242 286.876,108.876L286.876,110.406C285.079,111.413 282.591,111.992 280.053,111.992C277.71,111.992 275.54,110.674 274.63,108.712C273.834,107.072 273.574,105.434 273.574,101.925L273.574,88.475L270.18,88.475L270.18,86.043" style="fill:white;"/>
        </g>
    </g>
</svg>
