<?xml version="1.0" encoding="UTF-8" standalone="no"?>
<!DOCTYPE svg PUBLIC "-//W3C//DTD SVG 1.1//EN" "http://www.w3.org/Graphics/SVG/1.1/DTD/svg11.dtd">
<svg width="100%" height="100%" viewBox="0 0 3334 917" version="1.1" xmlns="http://www.w3.org/2000/svg" xmlns:xlink="http://www.w3.org/1999/xlink" xml:space="preserve" xmlns:serif="http://www.serif.com/" style="fill-rule:evenodd;clip-rule:evenodd;stroke-linejoin:round;stroke-miterlimit:2;">
    <g transform="matrix(4.16667,0,0,4.16667,0,0)">
        <g id="layer1" transform="matrix(1,0,0,1,0,-440)">
            <g id="text2405">
            </g>
            <g id="text3214">
            </g>
            <g id="text3222">
            </g>
            <g id="rect3308" transform="matrix(0.88,0,0,0.88,7.81597e-16,440)">
                <path d="M250,0L-0,0L-0,250L250,250L250,0ZM67.966,75.472L67.966,121.45L71.005,121.45C75.68,121.451 79.498,120.708 82.459,119.222C85.419,117.736 87.926,115.232 89.977,111.71C92.029,108.188 93.367,103.428 93.99,97.429L96.717,97.429L96.717,153.644L93.99,153.644C93.003,143.023 90.315,136.02 85.926,132.636C81.537,129.251 76.563,127.559 71.005,127.559L67.966,127.559L67.966,161.816C67.966,167.539 68.265,171.116 68.862,172.547C69.46,173.978 70.628,175.23 72.369,176.303C74.109,177.376 76.459,177.913 79.42,177.913L82.926,177.913L82.926,180.967L27.684,180.967L27.684,177.913L31.191,177.913C34.255,177.913 36.723,177.335 38.593,176.179C39.943,175.409 40.982,174.088 41.709,172.217C42.28,170.896 42.566,167.429 42.566,161.816L42.566,88.184C42.566,82.461 42.28,78.884 41.709,77.453C41.138,76.022 39.982,74.77 38.242,73.697C36.502,72.624 34.151,72.087 31.191,72.087L27.684,72.087L27.684,69.033L116.819,69.033L116.819,101.144L113.624,101.144C112.897,93.605 111.04,88.019 108.054,84.387C105.067,80.755 100.742,78.196 95.081,76.71C91.964,75.885 86.198,75.472 77.784,75.472L67.966,75.472ZM222.316,69.033L222.316,99.328L219.511,99.328C217.848,92.339 216.004,87.317 213.979,84.263C211.953,81.209 209.174,78.774 205.642,76.958C203.668,75.967 200.214,75.472 195.279,75.472L187.41,75.472L187.41,161.816C187.41,167.539 187.708,171.116 188.306,172.547C188.903,173.978 190.072,175.23 191.812,176.303C193.552,177.376 195.928,177.913 198.941,177.913L202.447,177.913L202.447,180.967L147.128,180.967L147.128,177.913L150.634,177.913C153.699,177.913 156.166,177.335 158.036,176.179C159.386,175.409 160.451,174.088 161.23,172.217C161.802,170.896 162.087,167.429 162.087,161.816L162.087,75.472L154.452,75.472C147.336,75.472 142.167,77.068 138.947,80.259C134.428,84.717 131.571,91.073 130.376,99.328L127.415,99.328L127.415,69.033L222.316,69.033Z" style="fill:white;"/>
            </g>
            <g id="text3302" transform="matrix(0.696459,0,0,0.651611,269.215,-88.4055)">
                <path d="M36.232,875.754L36.232,912.309L53.172,912.309C57.058,912.309 59.904,911.451 61.71,909.737C63.516,908.022 64.717,904.627 65.311,899.552L67.849,899.552L67.849,931.032L65.311,931.032C65.265,927.42 64.797,924.768 63.905,923.076C63.013,921.385 61.779,920.116 60.202,919.27C58.624,918.424 56.281,918.001 53.172,918.001L36.232,918.001L36.232,947.218C36.232,951.927 36.529,955.036 37.123,956.545C37.58,957.688 38.541,958.671 40.004,959.494C42.015,960.591 44.119,961.14 46.313,961.14L49.674,961.14L49.674,963.678L9.758,963.678L9.758,961.14L13.05,961.14C16.891,961.14 19.68,960.02 21.418,957.779C22.515,956.316 23.064,952.796 23.064,947.218L23.064,887.138C23.064,882.429 22.766,879.32 22.172,877.811C21.715,876.668 20.777,875.685 19.36,874.862C17.394,873.765 15.291,873.216 13.05,873.216L9.758,873.216L9.758,870.678L78.959,870.678L79.851,891.116L77.45,891.116C76.261,886.773 74.878,883.584 73.301,881.549C71.723,879.514 69.78,878.04 67.471,877.125C65.162,876.211 61.585,875.754 56.738,875.754L36.232,875.754ZM129.025,961.14L129.025,963.678L89.178,963.678L89.178,961.14L92.47,961.14C96.311,961.14 99.1,960.02 100.837,957.779C101.935,956.316 102.483,952.796 102.483,947.218L102.483,887.138C102.483,882.429 102.186,879.32 101.592,877.811C101.134,876.668 100.197,875.685 98.78,874.862C96.768,873.765 94.665,873.216 92.47,873.216L89.178,873.216L89.178,870.678L129.025,870.678L129.025,873.216L125.665,873.216C121.87,873.216 119.103,874.336 117.366,876.577C116.223,878.04 115.651,881.56 115.651,887.138L115.651,947.218C115.651,951.927 115.948,955.036 116.543,956.545C117,957.688 117.96,958.671 119.423,959.494C121.389,960.591 123.47,961.14 125.665,961.14L129.025,961.14ZM130.74,870.678L155.978,870.678L212.834,940.428L212.834,886.796C212.834,881.08 212.194,877.514 210.914,876.097C209.222,874.176 206.547,873.216 202.89,873.216L199.666,873.216L199.666,870.678L232.038,870.678L232.038,873.216L228.746,873.216C224.813,873.216 222.024,874.405 220.378,876.782C219.372,878.246 218.869,881.583 218.87,886.796L218.87,965.187L216.401,965.187L155.087,890.293L155.087,947.561C155.087,953.276 155.704,956.842 156.939,958.26C158.676,960.18 161.351,961.14 164.963,961.14L168.255,961.14L168.255,963.678L135.883,963.678L135.883,961.14L139.107,961.14C143.085,961.14 145.897,959.951 147.543,957.574C148.549,956.111 149.051,952.773 149.051,947.561L149.051,882.886C146.354,879.732 144.308,877.651 142.913,876.645C141.519,875.639 139.473,874.702 136.775,873.833C135.449,873.422 133.437,873.216 130.74,873.216L130.74,870.678ZM298.358,932.541L262.351,932.541L256.042,947.218C254.487,950.83 253.71,953.527 253.71,955.31C253.71,956.728 254.384,957.974 255.733,959.048C257.082,960.123 259.997,960.82 264.478,961.14L264.478,963.678L235.192,963.678L235.192,961.14C239.079,960.454 241.594,959.563 242.737,958.465C245.068,956.271 247.652,951.813 250.487,945.092L283.201,868.552L285.601,868.552L317.973,945.915C320.579,952.133 322.945,956.168 325.071,958.02C327.197,959.871 330.158,960.911 333.953,961.14L333.953,963.678L297.26,963.678L297.26,961.14C300.964,960.957 303.467,960.34 304.77,959.288C306.073,958.237 306.725,956.956 306.725,955.448C306.725,953.436 305.811,950.258 303.982,945.915L298.358,932.541ZM296.437,927.466L280.663,889.882L264.478,927.466L296.437,927.466ZM333.747,870.678L358.986,870.678L415.841,940.428L415.841,886.796C415.841,881.08 415.201,877.514 413.921,876.097C412.229,874.176 409.554,873.216 405.897,873.216L402.673,873.216L402.673,870.678L435.045,870.678L435.045,873.216L431.753,873.216C427.821,873.216 425.031,874.405 423.386,876.782C422.38,878.246 421.877,881.583 421.877,886.796L421.877,965.187L419.408,965.187L358.094,890.293L358.094,947.561C358.094,953.276 358.711,956.842 359.946,958.26C361.683,960.18 364.358,961.14 367.97,961.14L371.262,961.14L371.262,963.678L338.891,963.678L338.891,961.14L342.114,961.14C346.092,961.14 348.904,959.951 350.55,957.574C351.556,956.111 352.059,952.773 352.059,947.561L352.059,882.886C349.361,879.732 347.315,877.651 345.92,876.645C344.526,875.639 342.48,874.702 339.782,873.833C338.456,873.422 336.445,873.216 333.747,873.216L333.747,870.678ZM521.666,868.552L523.792,900.169L521.666,900.169C518.831,890.705 514.784,883.892 509.527,879.731C504.268,875.571 497.959,873.49 490.597,873.49C484.425,873.49 478.847,875.056 473.863,878.188C468.879,881.32 464.959,886.316 462.101,893.174C459.243,900.032 457.815,908.559 457.815,918.755C457.815,927.168 459.163,934.461 461.861,940.634C464.559,946.806 468.616,951.538 474.035,954.83C479.453,958.122 485.637,959.768 492.586,959.768C498.622,959.768 503.948,958.477 508.566,955.893C513.184,953.31 518.259,948.178 523.792,940.496L525.918,941.868C521.254,950.144 515.813,956.202 509.595,960.043C503.377,963.883 495.993,965.804 487.443,965.804C472.034,965.804 460.101,960.088 451.642,948.658C445.332,940.154 442.177,930.14 442.177,918.618C442.177,909.337 444.258,900.809 448.419,893.037C452.579,885.264 458.306,879.24 465.599,874.965C472.891,870.69 480.859,868.552 489.5,868.552C496.221,868.552 502.851,870.198 509.389,873.49C511.31,874.496 512.681,874.999 513.504,874.999C514.739,874.999 515.813,874.565 516.728,873.696C517.916,872.462 518.762,870.747 519.265,868.552L521.666,868.552ZM574.269,961.14L574.269,963.678L534.422,963.678L534.422,961.14L537.714,961.14C541.555,961.14 544.344,960.02 546.081,957.779C547.179,956.316 547.727,952.796 547.728,947.218L547.728,887.138C547.727,882.429 547.43,879.32 546.836,877.811C546.379,876.668 545.441,875.685 544.024,874.862C542.012,873.765 539.909,873.216 537.714,873.216L534.422,873.216L534.422,870.678L574.269,870.678L574.269,873.216L570.909,873.216C567.114,873.216 564.348,874.336 562.61,876.577C561.467,878.04 560.896,881.56 560.896,887.138L560.896,947.218C560.896,951.927 561.193,955.036 561.787,956.545C562.244,957.688 563.204,958.671 564.668,959.494C566.634,960.591 568.714,961.14 570.909,961.14L574.269,961.14ZM642.098,932.541L606.092,932.541L599.782,947.218C598.228,950.83 597.451,953.527 597.451,955.31C597.451,956.728 598.125,957.974 599.474,959.048C600.823,960.123 603.737,960.82 608.218,961.14L608.218,963.678L578.933,963.678L578.933,961.14C582.819,960.454 585.334,959.563 586.477,958.465C588.809,956.271 591.392,951.813 594.227,945.092L626.941,868.552L629.342,868.552L661.713,945.915C664.319,952.133 666.686,956.168 668.812,958.02C670.938,959.871 673.898,960.911 677.693,961.14L677.693,963.678L641.001,963.678L641.001,961.14C644.705,960.957 647.208,960.34 648.511,959.288C649.814,958.237 650.466,956.956 650.466,955.448C650.466,953.436 649.551,950.258 647.722,945.915L642.098,932.541ZM640.178,927.466L624.404,889.882L608.218,927.466L640.178,927.466ZM759.856,937.959L762.12,938.439L754.164,963.678L682.151,963.678L682.151,961.14L685.649,961.14C689.581,961.14 692.393,959.86 694.085,957.299C695.045,955.836 695.525,952.453 695.525,947.149L695.525,887.138C695.525,881.332 694.885,877.697 693.605,876.234C691.822,874.222 689.17,873.216 685.649,873.216L682.151,873.216L682.151,870.678L724.262,870.678L724.262,873.216C719.323,873.17 715.86,873.628 713.871,874.588C711.882,875.548 710.522,876.76 709.79,878.223C709.059,879.686 708.693,883.184 708.693,888.716L708.693,947.149C708.693,950.944 709.059,953.55 709.79,954.968C710.339,955.928 711.185,956.636 712.328,957.094C713.471,957.551 717.037,957.78 723.027,957.779L729.817,957.779C736.949,957.78 741.956,957.254 744.837,956.202C747.717,955.15 750.346,953.287 752.724,950.613C755.101,947.938 757.479,943.72 759.856,937.959ZM88.767,1011.14L89.795,1032.95L87.189,1032.95C86.686,1029.11 86,1026.36 85.132,1024.72C83.714,1022.07 81.828,1020.11 79.473,1018.85C77.119,1017.6 74.021,1016.97 70.18,1016.97L57.081,1016.97L57.081,1088.02C57.081,1093.74 57.698,1097.3 58.933,1098.72C60.67,1100.64 63.345,1101.6 66.957,1101.6L70.18,1101.6L70.18,1104.14L30.745,1104.14L30.745,1101.6L34.037,1101.6C37.969,1101.6 40.758,1100.41 42.404,1098.03C43.41,1096.57 43.913,1093.23 43.913,1088.02L43.913,1016.97L32.734,1016.97C28.39,1016.97 25.304,1017.29 23.475,1017.93C21.097,1018.8 19.063,1020.47 17.371,1022.93C15.679,1025.4 14.673,1028.74 14.353,1032.95L11.747,1032.95L12.845,1011.14L88.767,1011.14ZM136.706,1101.6L136.706,1104.14L96.859,1104.14L96.859,1101.6L100.151,1101.6C103.992,1101.6 106.781,1100.48 108.519,1098.24C109.616,1096.78 110.165,1093.26 110.165,1087.68L110.165,1027.6C110.165,1022.89 109.867,1019.78 109.273,1018.27C108.816,1017.13 107.879,1016.14 106.461,1015.32C104.449,1014.22 102.346,1013.68 100.151,1013.68L96.859,1013.68L96.859,1011.14L136.706,1011.14L136.706,1013.68L133.346,1013.68C129.551,1013.68 126.785,1014.8 125.047,1017.04C123.904,1018.5 123.333,1022.02 123.333,1027.6L123.333,1087.68C123.333,1092.39 123.63,1095.5 124.224,1097C124.681,1098.15 125.642,1099.13 127.105,1099.95C129.071,1101.05 131.151,1101.6 133.346,1101.6L136.706,1101.6ZM197.746,1104.14L161.808,1025.88L161.808,1088.02C161.808,1093.74 162.425,1097.3 163.66,1098.72C165.351,1100.64 168.026,1101.6 171.684,1101.6L174.976,1101.6L174.976,1104.14L142.605,1104.14L142.605,1101.6L145.897,1101.6C149.829,1101.6 152.618,1100.41 154.264,1098.03C155.27,1096.57 155.773,1093.23 155.773,1088.02L155.773,1027.26C155.773,1023.14 155.315,1020.17 154.401,1018.34C153.761,1017.01 152.584,1015.9 150.869,1015.01C149.154,1014.12 146.4,1013.68 142.605,1013.68L142.605,1011.14L168.941,1011.14L202.684,1083.9L235.878,1011.14L262.214,1011.14L262.214,1013.68L258.991,1013.68C255.013,1013.68 252.201,1014.86 250.555,1017.24C249.549,1018.71 249.046,1022.04 249.046,1027.26L249.046,1088.02C249.046,1093.74 249.686,1097.3 250.967,1098.72C252.658,1100.64 255.333,1101.6 258.991,1101.6L262.214,1101.6L262.214,1104.14L222.71,1104.14L222.71,1101.6L226.002,1101.6C229.98,1101.6 232.769,1100.41 234.369,1098.03C235.375,1096.57 235.878,1093.23 235.878,1088.02L235.878,1025.88L200.009,1104.14L197.746,1104.14ZM294.449,1016.21L294.449,1052.97L314.886,1052.97C320.19,1052.97 323.734,1052.17 325.517,1050.57C327.894,1048.47 329.22,1044.77 329.495,1039.46L332.032,1039.46L332.032,1071.83L329.495,1071.83C328.855,1067.31 328.214,1064.4 327.574,1063.12C326.751,1061.52 325.403,1060.27 323.528,1059.35C321.653,1058.44 318.773,1057.98 314.886,1057.98L294.449,1057.98L294.449,1088.64C294.449,1092.75 294.631,1095.26 294.997,1096.15C295.363,1097.04 296.003,1097.75 296.918,1098.27C297.832,1098.8 299.569,1099.06 302.13,1099.06L317.904,1099.06C323.162,1099.06 326.98,1098.7 329.358,1097.96C331.735,1097.23 334.021,1095.79 336.216,1093.64C339.051,1090.81 341.954,1086.53 344.926,1080.82L347.669,1080.82L339.645,1104.14L267.975,1104.14L267.975,1101.6L271.267,1101.6C273.462,1101.6 275.542,1101.07 277.508,1100.02C278.972,1099.29 279.966,1098.19 280.492,1096.73C281.018,1095.27 281.281,1092.27 281.281,1087.75L281.281,1027.32C281.281,1021.43 280.686,1017.79 279.497,1016.42C277.851,1014.59 275.108,1013.68 271.267,1013.68L267.975,1013.68L267.975,1011.14L339.645,1011.14L340.674,1031.51L337.999,1031.51C337.039,1026.62 335.976,1023.25 334.81,1021.43C333.644,1019.6 331.918,1018.2 329.632,1017.24C327.803,1016.56 324.58,1016.21 319.962,1016.21L294.449,1016.21ZM415.361,1009.01L415.361,1041.18L412.824,1041.18C412.001,1035.01 410.526,1030.09 408.4,1026.43C406.274,1022.77 403.245,1019.87 399.313,1017.72C395.381,1015.57 391.311,1014.5 387.105,1014.5C382.35,1014.5 378.418,1015.95 375.309,1018.85C372.199,1021.76 370.645,1025.06 370.645,1028.76C370.645,1031.6 371.628,1034.18 373.594,1036.51C376.429,1039.94 383.173,1044.52 393.826,1050.23C402.513,1054.89 408.446,1058.47 411.624,1060.96C414.801,1063.45 417.247,1066.39 418.962,1069.78C420.676,1073.16 421.534,1076.7 421.534,1080.41C421.534,1087.45 418.802,1093.52 413.338,1098.62C407.874,1103.71 400.844,1106.26 392.249,1106.26C389.551,1106.26 387.013,1106.06 384.636,1105.65C383.218,1105.42 380.281,1104.58 375.823,1103.14C371.365,1101.7 368.542,1100.98 367.353,1100.98C366.21,1100.98 365.307,1101.33 364.644,1102.01C363.981,1102.7 363.489,1104.11 363.169,1106.26L360.632,1106.26L360.632,1074.37L363.169,1074.37C364.358,1081.05 365.958,1086.04 367.97,1089.36C369.982,1092.67 373.057,1095.43 377.195,1097.62C381.332,1099.82 385.87,1100.91 390.808,1100.91C396.524,1100.91 401.039,1099.4 404.354,1096.39C407.668,1093.37 409.326,1089.8 409.326,1085.69C409.326,1083.4 408.697,1081.09 407.44,1078.76C406.183,1076.43 404.228,1074.26 401.576,1072.25C399.793,1070.87 394.923,1067.96 386.968,1063.5C379.012,1059.04 373.354,1055.49 369.993,1052.84C366.633,1050.18 364.084,1047.26 362.346,1044.06C360.609,1040.86 359.74,1037.34 359.74,1033.5C359.74,1026.82 362.301,1021.07 367.421,1016.25C372.542,1011.42 379.058,1009.01 386.968,1009.01C391.906,1009.01 397.141,1010.22 402.673,1012.65C405.234,1013.79 407.04,1014.36 408.091,1014.36C409.28,1014.36 410.252,1014.01 411.006,1013.3C411.761,1012.59 412.366,1011.16 412.824,1009.01L415.361,1009.01Z" style="fill:white;fill-rule:nonzero;"/>
            </g>
        </g>
    </g>
</svg>
