<?xml version="1.0" encoding="UTF-8" standalone="no"?>
<!DOCTYPE svg PUBLIC "-//W3C//DTD SVG 1.1//EN" "http://www.w3.org/Graphics/SVG/1.1/DTD/svg11.dtd">
<svg width="100%" height="100%" viewBox="0 0 1230 405" version="1.1" xmlns="http://www.w3.org/2000/svg" xmlns:xlink="http://www.w3.org/1999/xlink" xml:space="preserve" xmlns:serif="http://www.serif.com/" style="fill-rule:evenodd;clip-rule:evenodd;stroke-linejoin:round;stroke-miterlimit:2;">
    <g transform="matrix(4.16667,0,0,4.16667,0,0)">
        <path d="M66.9,51.7C67.9,51.2 69,50.6 70,50.1C70.4,49.9 71.8,49.4 72,49C72.1,48.8 72,48.2 72,47.9L72,9.5C72,9.4 72.1,8.7 72,8.6C71.9,8.5 71.1,8.6 71,8.6L68.8,8.6C68,8.6 68.1,8.7 67.6,9.3C65.7,11.8 63.8,14.3 61.9,16.9C61,18.1 60.1,19.2 59.3,20.4C58.7,21.2 58.7,21.3 57.6,21.3L57.9,14.7C58,13.1 58,11.5 58.1,9.9C58.1,9.3 58.2,8.7 58.2,8.1C58.2,7.9 58.1,7.3 58.2,7.2C58.4,6.9 60.2,7.1 60.7,7.1L98.1,7.1C98.3,7.1 99.2,7 99.4,7.1C99.6,7.2 99.5,7.8 99.5,8.1C99.6,9.4 99.6,10.8 99.7,12.1C99.8,15 99.9,17.8 100.1,20.7L100.1,21.3C99.6,21.3 99.2,21.4 98.8,21.1C98.4,20.8 98.1,20.2 97.8,19.8C96.6,18.2 95.4,16.5 94.1,14.9L90.5,10.1C90.3,9.8 90,9.1 89.6,8.9C89.3,8.7 88.7,8.8 88.3,8.8L86.7,8.8C86.5,8.8 85.7,8.7 85.5,8.8C85.4,8.9 85.5,8.9 85.4,9.1C85.2,9.9 85.4,10.9 85.4,11.7L85.4,46.5C85.4,47.2 85.2,48.2 85.4,48.9C85.6,49.6 87.2,50.1 87.9,50.4C88.6,50.8 89.8,51.1 90.4,51.7C90.6,51.9 90.8,52.9 90.6,53.2C90.5,53.3 90,53.2 89.9,53.2L67.9,53.2C67.7,53.2 67,53.3 66.9,53.2C66.8,52.8 66.9,52 66.9,51.7ZM104,49.9L104,7.5C104,6.9 104.2,6 104,5.4C103.8,4.7 102.6,4.6 101.9,4.3C101.5,4.2 100.2,3.9 100,3.5L100,2.7L100.3,2.7C100.7,2.5 101.5,2.5 102,2.4C102.9,2.2 103.8,2.1 104.6,1.9C106.6,1.5 108.7,1.1 110.7,0.8C111.9,0.6 113.1,0.3 114.3,0.1C114.6,0.1 115.8,-0.1 115.9,0.1C116,0.2 115.9,0.6 115.9,0.7L115.9,21.4C119.7,17.6 126.3,15.5 131.6,16.8C136.2,17.9 137.7,22.2 137.7,26.6C137.8,32.2 137.7,37.7 137.7,43.3L137.7,47.8C137.7,48.3 137.5,49.5 137.7,50C137.8,50.2 138.2,50.3 138.4,50.5C139.1,50.9 139.9,51.3 140.6,51.7C140.7,51.8 141,51.9 141,52C141.1,52.1 141.1,53 141,53.1C140.9,53.3 140.9,53.2 140.6,53.2C139.5,53.4 138.3,53.2 137.3,53.2L122.9,53.2C122.8,53.2 122.3,53.3 122.2,53.2C122.1,53.1 122.1,52 122.2,51.9C122.5,51.5 123.7,51.1 124.1,50.8C124.4,50.6 125.3,50.3 125.5,50C125.7,49.7 125.5,48.6 125.5,48.3L125.5,44.2C125.5,38.4 125.6,32.5 125.5,26.7C125.5,25 125.2,23 123.5,22.1C122.6,21.6 121.4,21.5 120.4,21.5C119.6,21.5 118.8,21.7 118.1,21.9C117.5,22.1 116.4,22.5 116,23C115.7,23.4 115.9,24 115.9,24.5L115.9,48.1C115.9,48.6 115.7,49.6 115.9,50C116,50.2 116.4,50.4 116.7,50.5C117.4,50.9 118.3,51.3 119,51.7C119.1,51.8 119.3,51.8 119.3,51.9C119.4,52 119.4,52.9 119.3,53C119.2,53.1 119.1,53.1 118.9,53.1C117.8,53.2 116.6,53.1 115.5,53.1L101.1,53.1C101,53.1 100.5,53.2 100.4,53.1C100.3,53 100.4,52 100.5,51.8C100.8,51.4 101.9,51 102.3,50.8C103,50.5 103.5,50.2 104,49.9ZM151.5,36.1C151.7,40.5 153.1,45.4 157.1,47.8C159.2,49 161.8,49.4 164.2,49.2C167.1,48.9 169.5,47.5 172,46.2C172,46.6 172.1,47.3 172,47.7C171.8,48.1 171.3,48.6 171,48.9C170.6,49.3 170.1,49.8 169.6,50.2C167.9,51.6 166,52.6 164,53.3C160.2,54.6 155.8,54.5 151.9,53.5C148.8,52.7 146,51.2 143.9,48.8C141.8,46.4 140.6,43.3 140.1,40.1C139,33.2 140.3,25.3 146,20.7C151,16.7 159,15.9 164.9,18.3C172.1,21.2 173.3,29.4 173.3,36.2L154.2,36.2C153.3,36.1 152.4,36.1 151.5,36.1ZM151.3,34.4C153.3,34.3 155.3,34.2 157.4,34C158.6,33.9 159.9,33.9 161.1,33.8C161.3,33.8 161.8,33.8 162,33.7C162.3,33.5 162.1,31.5 162.1,31.1C162,27.5 161.9,23.1 159.8,20C158.3,17.8 156,18.2 154.6,20.2C151.7,24.1 151.3,29.9 151.3,34.4ZM-0.1,70.9C-0.1,65.3 1,59.5 4.1,54.8C7.1,50.2 11.9,47.2 17.1,45.7C23.4,43.9 30.4,44.1 36.9,45.3C38.3,45.6 39.7,45.9 41,46.3C41.2,46.4 42.1,46.6 42.2,46.8L42.2,47.1C42.5,48.3 42.3,49.8 42.3,51C42.4,54.1 42.4,57.3 42.5,60.4C42.1,60.4 41.4,60.5 41.1,60.4C40.9,60.3 40.7,59.8 40.6,59.6C39.8,58.4 39,57.2 38.3,55.9C36.6,53.2 34.8,50.5 33.1,47.8C32.2,46.3 29.7,46.3 28.1,46.3C26.3,46.3 24.5,46.6 23,47.5C19.6,49.6 18,53.7 17.1,57.4C15.7,63.3 15.8,69.5 16.1,75.5C16.4,80.1 16.8,85 18.6,89.2C19.7,91.8 21.6,94.1 24.5,94.7C25.4,94.9 26.3,94.9 27.3,94.8C27.9,94.7 30,94.6 30.3,94C30.4,93.8 30.3,93.3 30.3,93.1L30.3,76.7C30.3,76 30.5,75.7 29.9,75.3C29.2,74.9 28.4,74.5 27.7,74C27.2,73.7 26.2,73.4 25.9,73C25.7,72.8 25.6,71.7 25.8,71.5C25.9,71.3 25.9,71.4 26.2,71.4C27.1,71.2 28.3,71.4 29.2,71.4L44.7,71.4C45.7,71.4 46.8,71.3 47.8,71.4L48.2,71.4C48.3,71.5 48.3,72.9 48.2,73.1C48,73.4 47,73.8 46.6,74C45.9,74.4 45.1,74.8 44.4,75.3C43.6,75.7 43.7,75.7 43.7,76.6L43.7,92.9C43.7,93.1 43.8,93.6 43.7,93.8C43.5,94.3 41.4,94.6 40.8,94.8C39.1,95.3 37.3,95.7 35.5,96C32,96.6 28.5,96.8 25,96.7C19.4,96.5 13.5,95.3 8.9,91.9C4.9,89 2.3,84.6 1.1,79.8C0.2,77 -0.1,73.9 -0.1,70.9ZM46,61.8C46,61.6 45.9,60.8 46,60.7C46.1,60.6 46.2,60.7 46.3,60.6C46.9,60.3 47.7,60.3 48.4,60.2C50.7,59.8 53,59.4 55.4,59C57.2,58.7 59,58.3 60.7,58.1C61.2,58 61.8,58 62.3,58.2C62.8,58.3 62.6,58.2 62.7,58.6C62.9,59.8 62.7,61.2 62.7,62.4L62.7,83.3C62.7,85.8 62,90.4 64.4,91.9C65.6,92.7 67.3,92.7 68.7,92.4C69.8,92.2 71.9,91.4 72.3,90.2C72.4,89.9 72.3,89.5 72.3,89.2L72.3,64.7C72.3,64.5 72.4,63.9 72.3,63.7C72,63.4 71,63.1 70.7,63C70.1,62.8 69.6,62.5 69,62.3C68.8,62.2 68.1,62.1 68,61.9C67.9,61.8 67.9,60.9 68,60.8C68.1,60.7 68.1,60.8 68.2,60.7C68.7,60.4 69.6,60.5 70.1,60.4C74.2,59.7 78.4,58.8 82.6,58.2C83.1,58.1 83.6,58.1 84.1,58.2C84.6,58.3 84.4,58.1 84.5,58.6C84.7,59.6 84.5,61 84.5,62.1L84.5,90.9C84.5,91.2 84.4,91.7 84.5,92.1C84.6,92.4 84.5,92.3 85,92.5C86,92.9 87.1,93.4 88.1,93.8C88.4,93.9 88.5,93.9 88.6,94.1C88.7,94.3 88.7,95 88.6,95C88.4,95.2 87.4,95.1 87.2,95.2C85,95.5 82.8,95.7 80.5,96C78.5,96.2 76.5,96.5 74.6,96.7C74.2,96.8 73.8,96.8 73.4,96.7C73.2,96.7 72.6,96.7 72.5,96.6C72.4,96.4 72.5,95.6 72.5,95.4L72.5,93.7C72.5,93.4 72.7,92.6 72.5,92.3C72.3,92 71.9,92.4 71.6,92.6C70.8,93.3 69.9,94 69,94.5C65.7,96.5 61.6,97.4 57.8,96.6C55,96 52.6,94.4 51.4,91.7C50.5,89.8 50.3,87.7 50.3,85.7L50.3,64.7C50.3,64.5 50.4,63.9 50.3,63.7C50.1,63.4 48.9,63.1 48.6,62.9C47.6,62.5 46.8,62.2 46,61.8ZM140.3,58C140.5,58 141.4,58 141.5,58.2C141.6,58.3 141.5,59 141.5,59.1L141.5,67.9C141.5,68.2 141.4,68.7 141.5,69L141.5,69.2C141.9,69.6 142,68.3 142.1,68.2C143,64.5 144.7,60.2 148.5,58.7C149.2,58.4 149.9,58.3 150.6,58.2C151.2,58.2 152.9,58 153.2,58.5C153.3,58.7 153.2,59.2 153.2,59.4L153.2,69.6C150.8,69.1 148.1,69.2 145.8,69.7C144.7,69.9 143.7,70.2 142.7,70.7C142.2,70.9 142.1,70.8 142,71.2C141.9,71.6 142,72.3 142,72.7L142,92C142,92.2 141.9,92.5 142,92.7C142.2,93 142.9,93.2 143.2,93.3C143.7,93.6 144.3,93.9 144.8,94.2C145,94.3 145.3,94.4 145.4,94.6C145.5,94.7 145.5,95.9 145.4,96C145.3,96.1 144.7,96 144.5,96L127.9,96C127.4,96 126.5,96.2 126.1,96L125.8,96C125.7,95.9 125.8,94.8 125.8,94.7C126,94.1 127.3,93.7 127.9,93.4C128.3,93.2 129.1,92.9 129.3,92.5C129.4,92.3 129.3,91.7 129.3,91.5L129.3,63.7C129.3,63.6 129.4,63.1 129.3,63C129.2,62.9 128.7,62.8 128.5,62.8C127.9,62.6 127.3,62.4 126.7,62.3C126.1,62.1 124.6,62 125.1,61C125.2,60.7 125.6,60.8 126,60.7C130.4,59.9 134.7,59.1 139.1,58.3C139.5,58.1 139.9,58.1 140.3,58ZM178,58.9L178,48.6C178,48.3 178.1,47.7 178,47.4C177.9,47.2 177.5,47.1 177.2,47C176.4,46.7 175.6,46.4 174.7,46.1C174.1,45.9 173.8,46 173.8,45.3C173.8,44.7 173.7,44.9 174.2,44.8C175.3,44.4 176.6,44.4 177.7,44.2C181,43.6 184.2,43 187.5,42.4C188.2,42.3 188.9,42.1 189.6,42.2C190.4,42.3 190.5,42.1 190.5,42.8C190.6,44.4 190.5,46.1 190.5,47.7L190.5,91.5C190.5,91.9 190.4,91.9 190.7,92.1C191.3,92.5 192.3,92.7 192.9,92.9C193.3,93 194.4,93.2 194.6,93.5C194.7,93.6 194.7,94.7 194.6,94.8C194.5,94.9 193.9,94.9 193.8,94.9C192.4,95.1 191.1,95.3 189.7,95.4C186.6,95.8 183.5,96.2 180.3,96.6C179.8,96.7 178.6,96.9 178.4,96.5C178.2,96.1 178.4,94.8 178.4,94.4C178.4,94.1 178.6,92.8 178.4,92.6C178.2,92.4 176,94.4 175.7,94.6C174.5,95.4 173.2,96 171.8,96.4C169.6,97 167.1,97 164.9,96.5C155.3,94.3 153.3,82.9 154.1,74.6C154.5,70.2 155.9,65.8 158.9,62.6C161.7,59.7 165.5,58.2 169.4,57.9C172.4,57.6 175.3,57.8 178,58.9ZM178,90.8L178,61.6C178,61 177.9,60.9 177.2,60.5C175.8,59.7 174,59.4 172.5,60C170.2,60.9 169.1,63.6 168.5,65.8C167.3,69.8 167.2,74.1 167.3,78.3C167.4,81.9 167.5,86.3 169.5,89.5C171.3,92.3 175.4,93 178,90.8ZM211.1,58C211.6,58.1 212.2,57.9 212.4,58.4C212.5,58.7 212.4,59.4 212.4,59.7L212.4,91C212.4,91.4 212.3,92 212.4,92.4C212.5,92.8 212.9,92.9 213.3,93.1C213.9,93.4 214.4,93.7 215,94C215.2,94.1 215.8,94.3 215.9,94.6C215.9,94.7 216,95.9 215.9,96L215.6,96C215,96.1 214.2,96 213.5,96L198.3,96C197.9,96 196.8,96.2 196.5,96C196.3,95.9 196.2,94.7 196.4,94.5C196.6,94.2 197.3,94 197.6,93.9C198.2,93.6 198.8,93.2 199.4,92.9C199.9,92.6 199.8,92.7 199.8,92.3C200,90.8 199.8,89.1 199.8,87.6L199.8,65.3C199.8,64.9 199.9,64.2 199.8,63.8C199.7,63.4 199.2,63.4 198.8,63.2C198.1,62.9 197.5,62.7 196.8,62.4C196.6,62.3 195.8,62.2 195.6,61.9C195.5,61.8 195.5,60.8 195.6,60.7C195.7,60.6 195.9,60.7 196,60.6C196.8,60.3 197.7,60.3 198.6,60.1C199.9,59.9 201.1,59.6 202.4,59.4C204.9,59 207.3,58.5 209.8,58.1C210.3,58.2 210.7,58.1 211.1,58ZM212.5,48.7C212.3,54.7 204.2,57.3 200.5,52.6C198.8,50.4 198.7,47.4 200.2,45.1C201.7,42.8 204.6,41.8 207.3,42.4C210.3,43 212.5,45.6 212.5,48.7ZM256.3,92.6L256.3,63.9C256.3,63.8 256.4,63.3 256.3,63.2C256.2,63 255.6,62.9 255.4,62.9L253.6,62.3C253.3,62.2 252.5,62.1 252.3,61.8C252.1,61.6 252.2,61.1 252.2,60.8C252.2,60.2 252.4,60.3 253,60.2L266.2,57.8C266.6,57.7 266.9,57.6 267.3,57.6C267.5,57.6 268.5,57.6 268.7,57.7C268.8,57.8 268.7,58.4 268.7,58.6L268.7,60.5C268.7,60.8 268.5,61.7 268.7,62C268.9,62.4 269.3,62 269.6,61.7C270.5,61 271.4,60.4 272.4,59.9C276,57.9 280.3,57 284.4,57.6C287.2,58 289.5,59.5 290.5,62.2C291.2,64.1 291.3,66.1 291.3,68.1L291.3,90.9C291.3,91.3 291.2,92 291.3,92.4C291.4,92.8 291.7,92.9 292.2,93.1C292.7,93.4 293.3,93.7 293.8,94C294,94.1 294.7,94.3 294.8,94.6C294.9,94.8 294.9,95.8 294.8,95.9C294.7,96.1 294.9,95.9 294.6,96C294.2,96.2 293.3,96 292.8,96L278.5,96C277.9,96 275.6,96.3 275.3,95.9C275.2,95.8 275.2,94.7 275.3,94.5C275.4,94.3 276,94.1 276.2,94C276.8,93.7 277.3,93.4 277.9,93.1C278.1,93 278.7,92.8 278.8,92.6C278.9,92.4 278.8,92 278.8,91.8L278.8,69.1C278.8,67.5 278.9,65.7 277.9,64.3C277.1,63.1 275.7,62.8 274.3,62.7C273.2,62.7 272.2,62.8 271.2,63.1C270.7,63.3 269.2,63.7 268.9,64.3C268.8,64.5 268.9,64.9 268.9,65.1L268.9,91C268.9,91.3 268.8,92 268.9,92.3C269,92.7 269.6,92.8 269.9,93C270.4,93.3 271,93.6 271.5,93.9C271.7,94 272.1,94.2 272.2,94.3C272.3,94.4 272.3,95.6 272.2,95.7C272.2,95.8 272.1,95.7 272,95.7C271.6,95.9 270.6,95.7 270.2,95.7L253.4,95.7C252.9,95.7 252.8,95.8 252.7,95.5C252.6,95.3 252.6,94.4 252.7,94.2C252.8,94 253.4,93.8 253.6,93.7C254.6,93.6 255.4,93.1 256.3,92.6ZM235.1,74.2C235.1,71.6 235.2,68.9 235,66.2C234.7,63.3 233.9,60.1 230.6,59.5C229.6,59.3 227.8,59 227.1,59.8C226.4,60.5 225.9,61.5 225.3,62.3L220.2,69.2C219.9,69.6 219.6,70.4 219.2,70.6C219.1,70.7 218.1,70.7 218.1,70.6C218,70.5 218.1,69.8 218.1,69.6L218.1,61.5C218.1,61.2 218,60.7 218.1,60.4C218.3,59.9 220.5,59.6 221,59.4C223.8,58.7 226.7,58.2 229.6,58C233.7,57.7 238.3,57.8 242.1,59.6C245.1,61 247,63.5 247.5,66.7C247.8,68.3 247.7,70.1 247.7,71.7L247.7,91.7C247.7,92 247.5,92.8 247.7,93C247.8,93.1 248.3,93.2 248.4,93.2C249.2,93.4 249.9,93.6 250.7,93.8C251.2,93.9 251.3,93.9 251.3,94.4C251.3,94.9 251.4,94.9 250.8,95.1C250.1,95.4 249.4,95.7 248.7,95.9C245,97 239.2,97.3 236.5,93.9C236.3,93.6 235.7,92.3 235.4,92.2C235,92.1 233.8,93.7 233.4,94C231.8,95.4 229.7,96.2 227.6,96.5C223.7,97 219.5,96.2 217.1,92.8C215.1,89.9 214.7,85.4 216.2,82.2C218.9,76.1 226.9,75.5 232.7,74.5C233.4,74.5 234.2,74.3 235.1,74.2ZM235.1,90.8L235.1,76C232.1,76.2 229,76.4 227.9,79.7C227.1,81.9 227.1,84.5 227.4,86.8C227.6,88.4 228,90.4 229.5,91.4C231.1,92.5 233.8,92.3 235.1,90.8ZM108.5,74.2C108.5,71.6 108.6,68.9 108.4,66.2C108.1,63.3 107.3,60.1 104,59.5C103,59.3 101.2,59 100.5,59.8C99.8,60.5 99.3,61.5 98.7,62.3L93.6,69.2C93.3,69.6 93,70.4 92.6,70.6C92.5,70.7 91.5,70.7 91.5,70.6C91.4,70.5 91.5,69.8 91.5,69.6L91.5,61.6C91.5,61.3 91.4,60.8 91.5,60.5C91.7,60 93.8,59.7 94.4,59.5C97.2,58.8 100.1,58.3 102.9,58.1C107,57.8 111.6,57.9 115.4,59.7C118.4,61.1 120.3,63.6 120.8,66.8C121.1,68.4 121,70.2 121,71.8L121,91.8C121,92.1 120.8,92.9 121,93.1C121.1,93.2 121.6,93.3 121.7,93.3C122.5,93.5 123.2,93.7 124,93.9C124.5,94 124.6,94 124.6,94.5C124.6,95 124.7,95 124.1,95.2C123.4,95.5 122.7,95.8 122,96C118.3,97.1 112.5,97.4 109.8,94C109.6,93.7 109,92.4 108.7,92.3C108.3,92.2 107.1,93.8 106.8,94.1C105.2,95.5 103.1,96.3 101,96.6C97.1,97.1 92.9,96.3 90.5,92.9C88.5,90 88.1,85.5 89.6,82.3C92.3,76.2 100.3,75.6 106,74.6C106.8,74.5 107.6,74.3 108.5,74.2ZM108.5,90.8L108.5,76C105.5,76.2 102.4,76.4 101.3,79.7C100.5,81.9 100.5,84.5 100.8,86.8C101,88.4 101.4,90.4 102.9,91.4C104.5,92.5 107.2,92.3 108.5,90.8Z" style="fill:white;fill-rule:nonzero;"/>
    </g>
</svg>
